<?xml version="1.0" standalone="no"?>
<!DOCTYPE svg PUBLIC "-//W3C//DTD SVG 20010904//EN"
 "http://www.w3.org/TR/2001/REC-SVG-20010904/DTD/svg10.dtd">
<svg version="1.0" xmlns="http://www.w3.org/2000/svg"
 width="358.000000pt" height="80.000000pt" viewBox="0 0 358.000000 80.000000"
 preserveAspectRatio="xMidYMid meet">
<metadata>
Created by Interract
</metadata>
<g transform="translate(0.000000,80.000000) scale(0.050000,-0.050000)"
fill="#2c2c2cff" stroke="none">
<path d="M1660 850 c0 -369 -1 -677 -1 -685 -1 -7 8 -17 20 -21 15 -5 21 200
21 684 0 448 -7 692 -20 692 -13 0 -20 -237 -20 -670z"/>
<path d="M705 1407 c-107 -23 -146 -146 -95 -302 12 -36 5 -48 -38 -64 -28
-11 -52 -25 -52 -30 0 -10 269 -151 288 -151 13 0 38 300 26 312 -6 6 -33 -4
-61 -22 -47 -31 -51 -31 -72 7 -103 193 295 188 477 -5 24 -26 66 -100 92
-165 79 -195 168 -154 100 46 -90 265 -391 434 -665 374z"/>
<path d="M385 1211 c-139 -158 -178 -362 -105 -556 90 -241 304 -325 410 -162
32 48 35 49 83 17 69 -45 72 -37 56 147 l-14 160 -123 -65 c-68 -37 -137 -72
-153 -79 -19 -8 -21 -17 -7 -24 106 -51 104 -129 -3 -129 -196 0 -220 444 -35
642 45 47 63 82 55 105 -22 57 -82 37 -164 -56z"/>
<path d="M2300 851 c0 -304 1 -311 43 -311 41 0 42 6 33 200 -6 110 -3 200 5
200 11 0 277 -284 383 -409 9 -10 16 122 16 295 0 307 -1 314 -43 314 -41 0
-42 -6 -33 -200 11 -230 10 -232 -105 -105 -48 52 -134 147 -193 211 l-106
116 0 -311z"/>
<path d="M4855 863 c-130 -329 -128 -323 -79 -323 24 0 45 28 65 85 l29 85
108 0 109 0 28 -85 c25 -75 105 -128 105 -70 0 19 -230 582 -242 593 -4 4 -60
-125 -123 -285z m162 20 c31 -104 31 -103 -34 -103 -78 0 -83 11 -48 101 39
99 53 99 82 2z"/>
<path d="M5472 1139 c-233 -70 -287 -416 -85 -549 155 -101 415 -43 381 85
l-13 45 -59 -50 c-143 -121 -356 -19 -356 170 0 189 213 291 356 170 l59 -50
10 50 c19 101 -145 174 -293 129z"/>
<path d="M6409 1130 c-8 -22 -62 -158 -122 -302 -122 -297 -120 -288 -70 -288
26 0 48 28 72 91 l35 91 103 -6 c102 -6 103 -7 132 -91 24 -68 39 -85 78 -85
30 0 43 9 36 25 -6 14 -65 156 -131 315 -90 219 -123 280 -133 250z m56 -249
c35 -90 30 -101 -48 -101 -65 0 -65 -1 -34 103 29 97 43 97 82 -2z"/>
<path d="M2060 840 c0 -287 2 -300 40 -300 38 0 40 13 40 300 0 287 -2 300
-40 300 -38 0 -40 -13 -40 -300z"/>
<path d="M2880 1100 c0 -33 13 -40 80 -40 l80 0 0 -260 c0 -247 2 -260 40
-260 38 0 40 13 40 260 l0 260 80 0 c67 0 80 7 80 40 0 37 -13 40 -200 40
-187 0 -200 -3 -200 -40z"/>
<path d="M3380 840 l0 -300 150 0 c137 0 150 4 150 40 0 35 -13 40 -111 40
l-111 0 6 124 6 124 80 1 c66 1 80 8 80 41 0 34 -12 38 -85 33 -83 -6 -85 -5
-85 55 0 62 1 62 110 62 97 0 110 5 110 40 0 36 -13 40 -150 40 l-150 0 0
-300z"/>
<path d="M3800 1135 c-18 -304 -2 -585 32 -585 34 0 37 13 31 135 -10 191 40
190 170 -5 59 -89 106 -140 130 -140 54 0 47 22 -53 157 l-89 122 49 50 c113
112 13 271 -168 271 -56 0 -102 -2 -102 -5z m216 -99 c66 -66 5 -156 -105
-156 -47 0 -51 7 -51 90 0 95 89 133 156 66z"/>
<path d="M4300 840 c0 -287 2 -300 40 -300 36 0 40 13 40 141 0 196 82 155
238 -118 9 -15 35 -24 60 -20 42 7 39 14 -50 143 l-94 135 43 46 c112 119 18
273 -166 273 l-111 0 0 -300z m229 189 c57 -58 2 -149 -90 -149 -57 0 -59 4
-59 90 0 99 77 130 149 59z"/>
<path d="M5824 1105 c4 -24 29 -37 81 -41 l75 -6 0 -259 c0 -246 2 -259 40
-259 38 0 40 13 40 260 l0 260 80 0 c67 0 80 7 80 40 0 37 -13 40 -201 40
-182 0 -201 -4 -195 -35z"/>
<path d="M6780 840 c0 -287 2 -300 40 -300 38 0 40 13 40 300 0 287 -2 300
-40 300 -38 0 -40 -13 -40 -300z"/>
<path d="M1004 932 c-149 -97 -149 -98 11 -205 l125 -83 0 68 c0 94 92 95 126
2 58 -157 -283 -379 -516 -336 -98 17 -124 16 -148 -7 -101 -101 260 -156 456
-70 351 155 443 579 125 579 -31 0 -42 15 -47 67 l-6 66 -126 -81z"/>
</g>
</svg>
